<svg width="7" height="40" viewBox="0 0 7 40" fill="none" xmlns="http://www.w3.org/2000/svg">
<path d="M7 20.0034C7 19.8859 6.97937 19.7775 6.93811 19.6781C6.89227 19.5788 6.82351 19.4839 6.73183 19.3936L1.37525 14.2304C1.21938 14.0768 1.03143 14 0.811395 14C0.660118 14 0.524885 14.0361 0.405697 14.1084C0.281925 14.1762 0.183366 14.271 0.11002 14.393C0.0366731 14.5104 0 14.6414 0 14.786C0 15.0028 0.0848064 15.1948 0.25442 15.3619L5.08153 20.0034L0.25442 24.6448C0.0848064 24.812 0 25.0017 0 25.214C0 25.3631 0.0366731 25.4963 0.11002 25.6138C0.183366 25.7312 0.281925 25.8238 0.405697 25.8916C0.524885 25.9639 0.660118 26 0.811395 26C1.03143 26 1.21938 25.9255 1.37525 25.7764L6.73183 20.6132C6.82351 20.5229 6.89227 20.428 6.93811 20.3286C6.97937 20.2292 7 20.1208 7 20.0034Z" fill="#22356D"/>
</svg>
